<svg width="28" height="28" viewBox="0 0 28 28" fill="none" xmlns="http://www.w3.org/2000/svg">
<path d="M24.1384 3.86229C23.1452 2.87164 21.7997 2.31531 20.3969 2.31531C18.9941 2.31531 17.6485 2.87164 16.6553 3.86229L3.84191 16.6752C3.67778 16.8526 3.56513 17.0714 3.51606 17.308L2.34939 24.308C2.31884 24.4912 2.33246 24.6791 2.38913 24.8559C2.4458 25.0328 2.54387 25.1936 2.67521 25.3249C2.80654 25.4562 2.96732 25.5543 3.1442 25.611C3.32107 25.6677 3.50891 25.6813 3.69211 25.6507L10.6921 24.4841C10.9288 24.435 11.1475 24.3223 11.3249 24.1582L24.1384 11.3454C24.6303 10.8544 25.0205 10.2711 25.2868 9.62912C25.5531 8.98711 25.6901 8.29889 25.6901 7.60385C25.6901 6.90881 25.5531 6.22059 25.2868 5.57858C25.0205 4.93656 24.6303 4.35334 24.1384 3.86229V3.86229ZM10.5001 21.6836L6.31653 17.5L16.3129 7.50358L20.4966 11.6872L10.5001 21.6836ZM5.44468 19.9278L8.07237 22.5554L4.9191 23.0804L5.44468 19.9278ZM22.4881 9.69609L22.1462 10.0379L17.9627 5.85391L18.3045 5.51208C18.8593 4.9573 19.6117 4.64563 20.3963 4.64563C21.1809 4.64563 21.9333 4.9573 22.4881 5.51208C23.0428 6.06685 23.3545 6.81928 23.3545 7.60385C23.3545 8.38842 23.0428 9.14085 22.4881 9.69563V9.69609Z" fill="#3860AD"/>
</svg>
