<svg width="40" height="40" viewBox="0 0 40 40" fill="none" xmlns="http://www.w3.org/2000/svg">
<circle cx="20" cy="20" r="20" fill="#999999"/>
<path fill-rule="evenodd" clip-rule="evenodd" d="M13.098 26.7603V14.222C13.098 13.673 13.5408 13.2302 14.0898 13.2302H17.4723C18.0213 13.2302 18.4817 13.673 18.4817 14.222V26.7603C18.4817 27.327 18.0213 27.7698 17.4723 27.7698H14.0898C13.5408 27.7698 13.098 27.327 13.098 26.7603ZM20.5183 26.7603V14.222C20.5183 13.673 20.9611 13.2302 21.5101 13.2302H24.8926C25.4416 13.2302 25.902 13.673 25.902 14.222V26.7603C25.902 27.327 25.4416 27.7698 24.8926 27.7698H21.5101C20.9611 27.7698 20.5183 27.327 20.5183 26.7603Z" fill="white"/>
</svg>
